<svg xmlns="http://www.w3.org/2000/svg" width="1100" height="280" viewBox="0 0 1100 280">
  <rect width="1100" height="280" fill="#0f172a"/>
  <text x="30" y="40" fill="#e2e8f0" font-size="24" font-family="Arial">Banking Reactive Platform v2 - Loan Workflow</text>
  <g font-family="Arial" font-size="14" fill="#e2e8f0">
    <rect x="30" y="90" width="160" height="70" rx="8" fill="#1e293b"/><text x="55" y="130">API Gateway</text>
    <rect x="230" y="90" width="160" height="70" rx="8" fill="#1e293b"/><text x="265" y="130">Loan Service</text>
    <rect x="430" y="90" width="180" height="70" rx="8" fill="#1e293b"/><text x="455" y="130">Customer Service</text>
    <rect x="650" y="90" width="120" height="70" rx="8" fill="#1e293b"/><text x="690" y="130">Kafka</text>
    <rect x="810" y="90" width="120" height="70" rx="8" fill="#1e293b"/><text x="835" y="130">Risk</text>
    <rect x="960" y="90" width="120" height="70" rx="8" fill="#1e293b"/><text x="970" y="130">Notification</text>
  </g>
  <g stroke="#38bdf8" stroke-width="2" fill="none">
    <path d="M190 125 L230 125"/>
    <path d="M390 125 L430 125"/>
    <path d="M390 145 L650 145"/>
    <path d="M770 125 L810 125"/>
    <path d="M930 125 L960 125"/>
  </g>
  <g font-family="Arial" font-size="12" fill="#7dd3fc">
    <text x="255" y="80">JWT + Correlation ID</text>
    <text x="455" y="80">WebClient + R2DBC(PostgreSQL)</text>
    <text x="520" y="170">loan-events / loan-decisions</text>
  </g>
</svg>
